ply
format ascii 1.0
comment VCGLIB generated
element vertex 64
property float x
property float y
property float z
property float nx
property float ny
property float nz
element face 96
property list uchar int vertex_indices
end_header
-84.90884 25 50 0.3333334 -0.6666666 0.6666667 
-84.90884 35 50 0.8164966 0.4082483 0.4082483 
-84.90884 25 -50 0.8164966 -0.4082483 -0.4082483 
-84.90884 35 -50 0.3333333 0.6666666 -0.6666667 
-94.90884 25 -50 -0.3333334 -0.6666666 -0.6666667 
-94.90884 35 -50 -0.8164966 0.4082483 -0.4082483 
-94.90884 25 50 -0.8164966 -0.4082483 0.4082483 
-94.90884 35 50 -0.3333333 0.6666666 0.6666667 
94.41404 25 50 0.3333334 -0.6666666 0.6666667 
94.41404 35 50 0.8164966 0.4082483 0.4082483 
94.41404 25 -50 0.8164966 -0.4082483 -0.4082483 
94.41404 35 -50 0.3333333 0.6666666 -0.6666667 
84.41404 25 -50 -0.3333334 -0.6666666 -0.6666667 
84.41404 35 -50 -0.8164966 0.4082483 -0.4082483 
84.41404 25 50 -0.8164966 -0.4082483 0.4082483 
84.41404 35 50 -0.3333333 0.6666666 0.6666667 
90 25 4.999996 0.3333334 -0.6666666 0.6666667 
90 35 4.999996 0.8164966 0.4082483 0.4082483 
90 25 -5.000004 0.8164966 -0.4082483 -0.4082483 
90 35 -5.000004 0.3333333 0.6666666 -0.6666667 
-90 25 -4.999996 -0.3333334 -0.6666666 -0.6666667 
-90 35 -4.999996 -0.8164966 0.4082483 -0.4082483 
-90 25 5.000004 -0.8164966 -0.4082483 0.4082483 
-90 35 5.000004 -0.3333333 0.6666666 0.6666667 
110 47.51758 69.99999 0.3333334 -0.6666666 0.6666667 
110 52.51758 69.99999 0.8164966 0.4082483 0.4082483 
110 47.51758 -70.00001 0.8164966 -0.4082483 -0.4082483 
110 52.51758 -70.00001 0.3333333 0.6666666 -0.6666667 
-110 47.51758 -69.99999 -0.3333334 -0.6666666 -0.6666667 
-110 52.51758 -69.99999 -0.8164966 0.4082483 -0.4082483 
-110 47.51758 70.00001 -0.8164966 -0.4082483 0.4082483 
-110 52.51758 70.00001 -0.3333333 0.6666666 0.6666667 
95 -50 60 0.3333334 -0.6666666 0.6666667 
95 50 60 0.8164966 0.4082483 0.4082483 
95 -50 50 0.8164966 -0.4082483 -0.4082483 
95 50 50 0.3333333 0.6666666 -0.6666667 
85 -50 50 -0.3333334 -0.6666666 -0.6666667 
85 50 50 -0.8164966 0.4082483 -0.4082483 
85 -50 60 -0.8164966 -0.4082483 0.4082483 
85 50 60 -0.3333333 0.6666666 0.6666667 
95 -50 -50 0.3333334 -0.6666666 0.6666667 
95 50 -50 0.8164966 0.4082483 0.4082483 
95 -50 -60 0.8164966 -0.4082483 -0.4082483 
95 50 -60 0.3333333 0.6666666 -0.6666667 
85 -50 -60 -0.3333334 -0.6666666 -0.6666667 
85 50 -60 -0.8164966 0.4082483 -0.4082483 
85 -50 -50 -0.8164966 -0.4082483 0.4082483 
85 50 -50 -0.3333333 0.6666666 0.6666667 
-85 -50 60 0.3333334 -0.6666666 0.6666667 
-85 50 60 0.8164966 0.4082483 0.4082483 
-85 -50 50 0.8164966 -0.4082483 -0.4082483 
-85 50 50 0.3333333 0.6666666 -0.6666667 
-95 -50 50 -0.3333334 -0.6666666 -0.6666667 
-95 50 50 -0.8164966 0.4082483 -0.4082483 
-95 -50 60 -0.8164966 -0.4082483 0.4082483 
-95 50 60 -0.3333333 0.6666666 0.6666667 
-85 -50 -50 0.3333334 -0.6666666 0.6666667 
-85 50 -50 0.8164966 0.4082483 0.4082483 
-85 -50 -60 0.8164966 -0.4082483 -0.4082483 
-85 50 -60 0.3333333 0.6666666 -0.6666667 
-95 -50 -60 -0.3333334 -0.6666666 -0.6666667 
-95 50 -60 -0.8164966 0.4082483 -0.4082483 
-95 -50 -50 -0.8164966 -0.4082483 0.4082483 
-95 50 -50 -0.3333333 0.6666666 0.6666667 
3 2 3 1 
3 2 1 0 
3 4 5 3 
3 4 3 2 
3 6 7 5 
3 6 5 4 
3 0 1 7 
3 0 7 6 
3 3 5 7 
3 3 7 1 
3 4 2 0 
3 4 0 6 
3 10 11 9 
3 10 9 8 
3 12 13 11 
3 12 11 10 
3 14 15 13 
3 14 13 12 
3 8 9 15 
3 8 15 14 
3 11 13 15 
3 11 15 9 
3 12 10 8 
3 12 8 14 
3 18 19 17 
3 18 17 16 
3 20 21 19 
3 20 19 18 
3 22 23 21 
3 22 21 20 
3 16 17 23 
3 16 23 22 
3 19 21 23 
3 19 23 17 
3 20 18 16 
3 20 16 22 
3 26 27 25 
3 26 25 24 
3 30 31 29 
3 30 29 28 
3 27 29 31 
3 27 31 25 
3 28 26 24 
3 28 24 30 
3 28 29 27 
3 28 27 26 
3 24 25 31 
3 24 31 30 
3 34 35 33 
3 34 33 32 
3 36 37 35 
3 36 35 34 
3 38 39 37 
3 38 37 36 
3 32 33 39 
3 32 39 38 
3 35 37 39 
3 35 39 33 
3 36 34 32 
3 36 32 38 
3 42 43 41 
3 42 41 40 
3 44 45 43 
3 44 43 42 
3 46 47 45 
3 46 45 44 
3 40 41 47 
3 40 47 46 
3 43 45 47 
3 43 47 41 
3 44 42 40 
3 44 40 46 
3 50 51 49 
3 50 49 48 
3 52 53 51 
3 52 51 50 
3 54 55 53 
3 54 53 52 
3 48 49 55 
3 48 55 54 
3 51 53 55 
3 51 55 49 
3 52 50 48 
3 52 48 54 
3 58 59 57 
3 58 57 56 
3 60 61 59 
3 60 59 58 
3 62 63 61 
3 62 61 60 
3 56 57 63 
3 56 63 62 
3 59 61 63 
3 59 63 57 
3 60 58 56 
3 60 56 62 
